<svg width="24" height="24" viewBox="0 0 24 24" fill="none" xmlns="http://www.w3.org/2000/svg">
<path d="M21.2167 12.77C21.0297 12.5571 20.9265 12.2834 20.9265 12C20.9265 11.7166 21.0297 11.4429 21.2167 11.23L22.71 9.55004C22.8746 9.36649 22.9768 9.13553 23.0019 8.8903C23.0271 8.64507 22.9739 8.39817 22.85 8.18504L20.5167 4.14837C20.3941 3.93548 20.2074 3.76673 19.9832 3.66617C19.7591 3.56562 19.5089 3.53839 19.2684 3.58837L17.075 4.03171C16.796 4.08937 16.5054 4.04289 16.2582 3.90104C16.0111 3.75919 15.8244 3.53177 15.7334 3.26171L15.0217 1.12671C14.9434 0.894983 14.7943 0.693716 14.5954 0.551356C14.3966 0.408996 14.158 0.332742 13.9134 0.333374H9.24671C8.9923 0.320095 8.74053 0.390454 8.52987 0.533707C8.3192 0.676959 8.16122 0.885229 8.08004 1.12671L7.42671 3.26171C7.33571 3.53177 7.14901 3.75919 6.90184 3.90104C6.65467 4.04289 6.36413 4.08937 6.08504 4.03171L3.83337 3.58837C3.60535 3.55615 3.37289 3.59213 3.16528 3.69179C2.95767 3.79144 2.78419 3.95031 2.66671 4.14837L0.333375 8.18504C0.206395 8.3958 0.149301 8.64131 0.170255 8.88647C0.191209 9.13163 0.289138 9.36389 0.450042 9.55004L1.93171 11.23C2.11875 11.4429 2.2219 11.7166 2.2219 12C2.2219 12.2834 2.11875 12.5571 1.93171 12.77L0.450042 14.45C0.289138 14.6362 0.191209 14.8685 0.170255 15.1136C0.149301 15.3588 0.206395 15.6043 0.333375 15.815L2.66671 19.8517C2.78932 20.0646 2.97601 20.2334 3.20017 20.3339C3.42432 20.4345 3.6745 20.4617 3.91504 20.4117L6.10837 19.9684C6.38746 19.9107 6.678 19.9572 6.92517 20.099C7.17234 20.2409 7.35904 20.4683 7.45004 20.7384L8.16171 22.8734C8.24288 23.1149 8.40087 23.3231 8.61153 23.4664C8.8222 23.6096 9.07396 23.68 9.32837 23.6667H13.995C14.2396 23.6673 14.4782 23.5911 14.6771 23.4487C14.876 23.3064 15.0251 23.1051 15.1034 22.8734L15.815 20.7384C15.906 20.4683 16.0927 20.2409 16.3399 20.099C16.5871 19.9572 16.8776 19.9107 17.1567 19.9684L19.35 20.4117C19.5906 20.4617 19.8408 20.4345 20.0649 20.3339C20.2891 20.2334 20.4758 20.0646 20.5984 19.8517L22.9317 15.815C23.0556 15.6019 23.1087 15.355 23.0836 15.1098C23.0584 14.8646 22.9563 14.6336 22.7917 14.45L21.2167 12.77ZM19.4784 14.3334L20.4117 15.3834L18.9184 17.9734L17.5417 17.6934C16.7014 17.5216 15.8274 17.6643 15.0854 18.0945C14.3434 18.5246 13.7852 19.2122 13.5167 20.0267L13.0734 21.3334H10.0867L9.66671 20.0034C9.3982 19.1889 8.83998 18.5013 8.09801 18.0711C7.35604 17.641 6.48197 17.4983 5.64171 17.67L4.26504 17.95L2.74837 15.3717L3.68171 14.3217C4.25566 13.68 4.57296 12.8493 4.57296 11.9884C4.57296 11.1275 4.25566 10.2967 3.68171 9.65504L2.74837 8.60504L4.24171 6.03837L5.61837 6.31837C6.45863 6.49013 7.33271 6.3474 8.07468 5.91727C8.81665 5.48714 9.37487 4.79956 9.64337 3.98504L10.0867 2.66671H13.0734L13.5167 3.99671C13.7852 4.81123 14.3434 5.49881 15.0854 5.92894C15.8274 6.35907 16.7014 6.5018 17.5417 6.33004L18.9184 6.05004L20.4117 8.64004L19.4784 9.69004C18.9109 10.3303 18.5975 11.1562 18.5975 12.0117C18.5975 12.8672 18.9109 13.6932 19.4784 14.3334ZM11.58 7.33337C10.6571 7.33337 9.75481 7.60707 8.98738 8.11985C8.21995 8.63263 7.62181 9.36146 7.2686 10.2142C6.91539 11.0669 6.82298 12.0052 7.00304 12.9105C7.18311 13.8157 7.62756 14.6472 8.28021 15.2999C8.93285 15.9525 9.76437 16.397 10.6696 16.577C11.5749 16.7571 12.5132 16.6647 13.3659 16.3115C14.2186 15.9583 14.9475 15.3601 15.4602 14.5927C15.973 13.8253 16.2467 12.923 16.2467 12C16.2467 10.7624 15.755 9.57538 14.8799 8.70021C14.0047 7.82504 12.8177 7.33337 11.58 7.33337ZM11.58 14.3334C11.1186 14.3334 10.6674 14.1965 10.2837 13.9401C9.89999 13.6837 9.60093 13.3193 9.42432 12.893C9.24772 12.4666 9.20151 11.9975 9.29154 11.5448C9.38157 11.0922 9.6038 10.6764 9.93012 10.3501C10.2564 10.0238 10.6722 9.80157 11.1248 9.71154C11.5775 9.62151 12.0466 9.66772 12.473 9.84432C12.8993 10.0209 13.2637 10.32 13.5201 10.7037C13.7765 11.0874 13.9134 11.5386 13.9134 12C13.9134 12.6189 13.6675 13.2124 13.23 13.65C12.7924 14.0875 12.1989 14.3334 11.58 14.3334Z" fill="#3E3E40"/>
</svg>
