<svg width="28" height="38" viewBox="0 0 28 38" fill="none" xmlns="http://www.w3.org/2000/svg">
<path d="M6.4 38H21.6C23.8402 38 24.9603 38 25.816 37.564C26.5686 37.1805 27.1805 36.5686 27.564 35.816C28 34.9603 28 33.8402 28 31.6V9.5232C28 8.35344 28 7.76856 27.8471 7.23147C27.7116 6.75576 27.4891 6.30931 27.1908 5.91476C26.854 5.46929 26.387 5.11718 25.453 4.41295L21.3106 1.28975C20.676 0.811252 20.3587 0.572002 20.0089 0.402092C19.6986 0.251324 19.37 0.141344 19.0314 0.0748904C18.6499 0 18.2525 0 17.4577 0H10.5423C9.74754 0 9.35013 0 8.96857 0.0748904C8.63 0.141344 8.30145 0.251324 7.9911 0.402092C7.64134 0.572002 7.32402 0.811252 6.68938 1.28975L2.54703 4.41295C1.61301 5.11718 1.14599 5.46929 0.809218 5.91476C0.510935 6.30931 0.288415 6.75576 0.152948 7.23147C0 7.76856 0 8.35344 0 9.5232V31.6C0 33.8402 0 34.9603 0.435974 35.816C0.819467 36.5686 1.43139 37.1805 2.18404 37.564C3.03969 38 4.15979 38 6.4 38Z" fill="#D3CEF6"/>
</svg>
